<mxfile host="app.diagrams.net" modified="2024-05-14T02:09:04.161Z" agent="Mozilla/5.0 (Windows NT 10.0; Win64; x64) AppleWebKit/537.36 (KHTML, like Gecko) Chrome/124.0.0.0 Safari/537.36" etag="3nsJ_i7Dbl0Yy9_8K7Xx" version="24.4.0" type="device">
  <diagram name="EXERCISE-1" id="7WXvErT6jwQCl5LBhXy7">
    <mxGraphModel dx="978" dy="531" grid="1" gridSize="10" guides="1" tooltips="1" connect="1" arrows="1" fold="1" page="1" pageScale="1" pageWidth="850" pageHeight="1100" math="0" shadow="0">
      <root>
        <mxCell id="0" />
        <mxCell id="1" parent="0" />
        <mxCell id="-hOMn0kYKFU-R9jvK8EN-38" value="EXERCISE 16 P2" style="text;html=1;align=center;verticalAlign=middle;resizable=0;points=[];autosize=1;strokeColor=none;fillColor=none;" parent="1" vertex="1">
          <mxGeometry x="310" width="120" height="30" as="geometry" />
        </mxCell>
        <mxCell id="jAzLcmatW34AS9ptDqRP-906" style="edgeStyle=orthogonalEdgeStyle;rounded=0;orthogonalLoop=1;jettySize=auto;html=1;exitX=0;exitY=0.5;exitDx=0;exitDy=0;entryX=0;entryY=0.5;entryDx=0;entryDy=0;" edge="1" parent="1" source="jAzLcmatW34AS9ptDqRP-907">
          <mxGeometry relative="1" as="geometry">
            <mxPoint x="302.5" y="1310" as="targetPoint" />
            <Array as="points">
              <mxPoint x="-180" y="2250" />
              <mxPoint x="-180" y="1310" />
            </Array>
          </mxGeometry>
        </mxCell>
        <mxCell id="jAzLcmatW34AS9ptDqRP-1104" style="edgeStyle=orthogonalEdgeStyle;rounded=0;orthogonalLoop=1;jettySize=auto;html=1;exitX=0;exitY=0.5;exitDx=0;exitDy=0;entryX=0;entryY=0.5;entryDx=0;entryDy=0;" edge="1" parent="1">
          <mxGeometry relative="1" as="geometry">
            <mxPoint x="772.5" y="1390" as="targetPoint" />
            <Array as="points">
              <mxPoint x="290" y="2330" />
              <mxPoint x="290" y="1390" />
            </Array>
          </mxGeometry>
        </mxCell>
        <mxCell id="jAzLcmatW34AS9ptDqRP-1212" value="" style="edgeStyle=orthogonalEdgeStyle;rounded=0;orthogonalLoop=1;jettySize=auto;html=1;" edge="1" parent="1" source="jAzLcmatW34AS9ptDqRP-1213" target="jAzLcmatW34AS9ptDqRP-1215">
          <mxGeometry relative="1" as="geometry" />
        </mxCell>
        <mxCell id="jAzLcmatW34AS9ptDqRP-1213" value="INICIO" style="ellipse;whiteSpace=wrap;html=1;" vertex="1" parent="1">
          <mxGeometry x="330" y="30" width="80" height="80" as="geometry" />
        </mxCell>
        <mxCell id="jAzLcmatW34AS9ptDqRP-1214" value="" style="edgeStyle=orthogonalEdgeStyle;rounded=0;orthogonalLoop=1;jettySize=auto;html=1;" edge="1" parent="1" source="jAzLcmatW34AS9ptDqRP-1215" target="jAzLcmatW34AS9ptDqRP-1217">
          <mxGeometry relative="1" as="geometry" />
        </mxCell>
        <mxCell id="jAzLcmatW34AS9ptDqRP-1215" value="INPUT&lt;div&gt;divident, divider&lt;/div&gt;" style="shape=parallelogram;perimeter=parallelogramPerimeter;whiteSpace=wrap;html=1;fixedSize=1;" vertex="1" parent="1">
          <mxGeometry x="310" y="150" width="120" height="60" as="geometry" />
        </mxCell>
        <mxCell id="jAzLcmatW34AS9ptDqRP-1216" value="" style="edgeStyle=orthogonalEdgeStyle;rounded=0;orthogonalLoop=1;jettySize=auto;html=1;" edge="1" parent="1" source="jAzLcmatW34AS9ptDqRP-1217" target="jAzLcmatW34AS9ptDqRP-1220">
          <mxGeometry relative="1" as="geometry" />
        </mxCell>
        <mxCell id="jAzLcmatW34AS9ptDqRP-1217" value="cociente = 0&lt;div&gt;residuo = divident&lt;/div&gt;&lt;div&gt;i = 0&lt;/div&gt;" style="whiteSpace=wrap;html=1;" vertex="1" parent="1">
          <mxGeometry x="310" y="250" width="120" height="60" as="geometry" />
        </mxCell>
        <mxCell id="jAzLcmatW34AS9ptDqRP-1218" value="" style="edgeStyle=orthogonalEdgeStyle;rounded=0;orthogonalLoop=1;jettySize=auto;html=1;" edge="1" parent="1" source="jAzLcmatW34AS9ptDqRP-1220" target="jAzLcmatW34AS9ptDqRP-1224">
          <mxGeometry relative="1" as="geometry" />
        </mxCell>
        <mxCell id="jAzLcmatW34AS9ptDqRP-1219" style="edgeStyle=orthogonalEdgeStyle;rounded=0;orthogonalLoop=1;jettySize=auto;html=1;entryX=0;entryY=0.5;entryDx=0;entryDy=0;" edge="1" parent="1" source="jAzLcmatW34AS9ptDqRP-1220" target="jAzLcmatW34AS9ptDqRP-1229">
          <mxGeometry relative="1" as="geometry">
            <mxPoint x="250" y="620" as="targetPoint" />
            <Array as="points">
              <mxPoint x="250" y="390" />
              <mxPoint x="250" y="615" />
            </Array>
          </mxGeometry>
        </mxCell>
        <mxCell id="jAzLcmatW34AS9ptDqRP-1220" value="divider != 0" style="rhombus;whiteSpace=wrap;html=1;fillColor=#fff2cc;strokeColor=#d6b656;" vertex="1" parent="1">
          <mxGeometry x="330" y="350" width="80" height="80" as="geometry" />
        </mxCell>
        <mxCell id="jAzLcmatW34AS9ptDqRP-1221" value="SI" style="text;html=1;align=center;verticalAlign=middle;resizable=0;points=[];autosize=1;strokeColor=none;fillColor=none;" vertex="1" parent="1">
          <mxGeometry x="380" y="430" width="30" height="30" as="geometry" />
        </mxCell>
        <mxCell id="jAzLcmatW34AS9ptDqRP-1222" value="" style="edgeStyle=orthogonalEdgeStyle;rounded=0;orthogonalLoop=1;jettySize=auto;html=1;" edge="1" parent="1" source="jAzLcmatW34AS9ptDqRP-1224" target="jAzLcmatW34AS9ptDqRP-1227">
          <mxGeometry relative="1" as="geometry">
            <Array as="points">
              <mxPoint x="460" y="500" />
              <mxPoint x="460" y="410" />
            </Array>
          </mxGeometry>
        </mxCell>
        <mxCell id="jAzLcmatW34AS9ptDqRP-1223" value="" style="edgeStyle=orthogonalEdgeStyle;rounded=0;orthogonalLoop=1;jettySize=auto;html=1;" edge="1" parent="1" source="jAzLcmatW34AS9ptDqRP-1224" target="jAzLcmatW34AS9ptDqRP-1229">
          <mxGeometry relative="1" as="geometry" />
        </mxCell>
        <mxCell id="jAzLcmatW34AS9ptDqRP-1224" value="residuo - divider &amp;gt;= 0" style="rhombus;whiteSpace=wrap;html=1;fillColor=#fff2cc;strokeColor=#d6b656;" vertex="1" parent="1">
          <mxGeometry x="295" y="460" width="150" height="80" as="geometry" />
        </mxCell>
        <mxCell id="jAzLcmatW34AS9ptDqRP-1225" value="SI" style="text;html=1;align=center;verticalAlign=middle;resizable=0;points=[];autosize=1;strokeColor=none;fillColor=none;" vertex="1" parent="1">
          <mxGeometry x="464" y="450" width="30" height="30" as="geometry" />
        </mxCell>
        <mxCell id="jAzLcmatW34AS9ptDqRP-1226" value="" style="edgeStyle=orthogonalEdgeStyle;rounded=0;orthogonalLoop=1;jettySize=auto;html=1;" edge="1" parent="1" source="jAzLcmatW34AS9ptDqRP-1227" target="jAzLcmatW34AS9ptDqRP-1235">
          <mxGeometry relative="1" as="geometry" />
        </mxCell>
        <mxCell id="jAzLcmatW34AS9ptDqRP-1227" value="residuo = residuo - divider" style="whiteSpace=wrap;html=1;" vertex="1" parent="1">
          <mxGeometry x="520" y="380" width="155" height="60" as="geometry" />
        </mxCell>
        <mxCell id="jAzLcmatW34AS9ptDqRP-1228" value="" style="edgeStyle=orthogonalEdgeStyle;rounded=0;orthogonalLoop=1;jettySize=auto;html=1;" edge="1" parent="1" source="jAzLcmatW34AS9ptDqRP-1229" target="jAzLcmatW34AS9ptDqRP-1232">
          <mxGeometry relative="1" as="geometry" />
        </mxCell>
        <mxCell id="jAzLcmatW34AS9ptDqRP-1229" value="cociente = i" style="whiteSpace=wrap;html=1;" vertex="1" parent="1">
          <mxGeometry x="320" y="590" width="100" height="50" as="geometry" />
        </mxCell>
        <mxCell id="jAzLcmatW34AS9ptDqRP-1230" value="NO" style="text;html=1;align=center;verticalAlign=middle;resizable=0;points=[];autosize=1;strokeColor=none;fillColor=none;" vertex="1" parent="1">
          <mxGeometry x="370" y="548" width="40" height="30" as="geometry" />
        </mxCell>
        <mxCell id="jAzLcmatW34AS9ptDqRP-1231" value="" style="edgeStyle=orthogonalEdgeStyle;rounded=0;orthogonalLoop=1;jettySize=auto;html=1;" edge="1" parent="1" source="jAzLcmatW34AS9ptDqRP-1232" target="jAzLcmatW34AS9ptDqRP-1233">
          <mxGeometry relative="1" as="geometry" />
        </mxCell>
        <mxCell id="jAzLcmatW34AS9ptDqRP-1232" value="cociente, &quot; &quot;,&amp;nbsp;&lt;span style=&quot;background-color: initial;&quot;&gt;residuo&lt;/span&gt;" style="shape=parallelogram;perimeter=parallelogramPerimeter;whiteSpace=wrap;html=1;fixedSize=1;" vertex="1" parent="1">
          <mxGeometry x="290" y="680" width="160" height="60" as="geometry" />
        </mxCell>
        <mxCell id="jAzLcmatW34AS9ptDqRP-1233" value="FIN" style="ellipse;whiteSpace=wrap;html=1;" vertex="1" parent="1">
          <mxGeometry x="330" y="770" width="80" height="80" as="geometry" />
        </mxCell>
        <mxCell id="jAzLcmatW34AS9ptDqRP-1234" value="NO" style="text;html=1;align=center;verticalAlign=middle;resizable=0;points=[];autosize=1;strokeColor=none;fillColor=none;" vertex="1" parent="1">
          <mxGeometry x="290" y="358" width="40" height="30" as="geometry" />
        </mxCell>
        <mxCell id="jAzLcmatW34AS9ptDqRP-1235" value="++i" style="whiteSpace=wrap;html=1;" vertex="1" parent="1">
          <mxGeometry x="571.25" y="460" width="52.5" height="30" as="geometry" />
        </mxCell>
        <mxCell id="jAzLcmatW34AS9ptDqRP-1236" style="edgeStyle=orthogonalEdgeStyle;rounded=0;orthogonalLoop=1;jettySize=auto;html=1;entryX=0.713;entryY=0.85;entryDx=0;entryDy=0;entryPerimeter=0;" edge="1" parent="1" source="jAzLcmatW34AS9ptDqRP-1235" target="jAzLcmatW34AS9ptDqRP-1224">
          <mxGeometry relative="1" as="geometry">
            <Array as="points">
              <mxPoint x="598" y="528" />
            </Array>
          </mxGeometry>
        </mxCell>
      </root>
    </mxGraphModel>
  </diagram>
</mxfile>
